# xmcd CD database file
#
# Track frame offsets:
#	150
#	19810
#	34737
#	50824
#	72136
#	92770
#	121435
#	141470
#	160484
#	183625
#
# Disc length: 2702 seconds
#
# Revision: 0
# Processed by: cddbd v1.5.2PL0 Copyright (c) Steve Scherf et al.
# Submitted via: CDex 1.70beta2
#
DISCID=940a8c0a
DTITLE=Masterplan - Time To Be King
DYEAR=2010
DGENRE=Power Metal
TTITLE0=Fiddle Of Time
TTITLE1=Blow Your Winds
TTITLE2=Far From The End Of The World
TTITLE3=Time To Be King
TTITLE4=Lonely Winds Of War
TTITLE5=Dark The Road
TTITLE6=The Sun Is In Your Hands
TTITLE7=The Black One
TTITLE8=Blue Europe
TTITLE9=Under The Moon
EXTD=YEAR: 2010
EXTT0=
EXTT1=
EXTT2=
EXTT3=
EXTT4=
EXTT5=
EXTT6=
EXTT7=
EXTT8=
EXTT9=
PLAYORDER=
